<svg width="405" height="300" viewBox="0 0 405 300" fill="none" xmlns="http://www.w3.org/2000/svg"> <rect width="405" height="300" fill="white"/> <path d="M227.825 151.993C222.142 138.379 213.315 127.024 200.501 119.497C187.039 111.589 171.671 105.004 156.189 102.629C140.69 100.338 124.888 101.223 109.742 105.23C102.441 107.122 94.3922 109.32 88.2344 113.85C82.3476 118.18 78.3152 125.304 75.0325 131.704C71.8872 137.835 69.9264 144.587 71.6289 151.454C73.1976 157.782 77.5841 163.052 82.601 167.018C87.0828 170.561 93.3508 175.25 99.3456 173.055C99.6861 172.93 100.011 172.766 100.314 172.566C110.666 175.718 120.959 171.134 131.587 167.545C138.045 165.364 144.539 164.261 151.026 166.984C157.416 169.666 162.618 174.936 166.431 180.615C170.058 186.018 172.445 192.152 176.425 197.331C178.404 199.997 180.92 202.219 183.81 203.852C186.7 205.485 189.901 206.493 193.205 206.812C206.046 208.25 223.089 206.926 230.487 194.761C238.37 181.798 233.212 164.895 227.825 151.993ZM96.7474 132.084C98.652 132.301 100.557 132.517 102.462 132.732C98.8325 133.386 95.4376 134.979 92.6143 137.352C91.5404 138.259 90.5446 139.254 89.6373 140.328C89.6633 140.241 89.6786 140.158 89.7066 140.07C90.2668 138.325 91.1814 136.715 92.393 135.341C93.6047 133.967 95.0871 132.858 96.7474 132.084V132.084ZM160.688 144.254C161.111 144.571 161.604 144.781 162.125 144.867C162.186 144.877 162.246 144.888 162.308 144.898C162.662 145.102 163.017 145.303 163.373 145.503C163.333 145.559 163.302 145.62 163.264 145.678C162.393 145.588 161.522 145.501 160.651 145.414C160.713 145.03 160.725 144.64 160.688 144.254V144.254ZM183.737 171.523C183.544 171.727 183.375 171.951 183.231 172.192C183.145 172.068 183.06 171.944 182.974 171.82C183.211 171.68 183.468 171.58 183.737 171.523V171.523ZM198.623 187.643C199.486 187.757 200.349 187.87 201.212 187.984C201.051 188.264 200.933 188.567 200.861 188.882C200.249 188.902 199.632 188.912 199.015 188.915L198.623 187.643ZM211.124 180.292C211.472 180.233 211.819 180.173 212.166 180.113C212.712 180.025 213.232 179.818 213.689 179.508C213.691 179.569 213.696 179.631 213.699 179.692C213.706 179.9 213.726 180.16 213.752 180.455C213.667 180.605 213.581 180.753 213.489 180.9C212.701 180.698 211.913 180.495 211.124 180.292V180.292ZM166.729 134.355C166.314 134.01 165.846 133.734 165.342 133.539C162.898 132.594 160.394 131.811 157.847 131.194C157.466 130.835 157.093 130.467 156.73 130.089C158.88 130.513 161.006 131.055 163.098 131.711C165.781 132.571 168.412 133.583 170.979 134.743C169.561 134.585 168.145 134.456 166.729 134.355V134.355ZM190.644 135.958C189.396 135.178 188.141 134.412 186.877 133.661C188.172 134.391 189.449 135.156 190.708 135.957L190.644 135.958ZM216.43 147.733C213.083 143.637 209.382 139.845 205.369 136.399C205.679 135.687 205.835 134.917 205.827 134.14C210.031 138.106 213.606 142.69 216.43 147.733V147.733ZM168.34 114.217C167.812 114.094 167.283 113.971 166.753 113.852C161.726 112.716 156.605 111.493 151.437 110.455C151.715 110.488 151.992 110.515 152.269 110.55C157.728 111.273 163.108 112.501 168.34 114.217V114.217Z" fill="#CFDBDC"/> <path d="M104.352 171.515C91.7992 170.083 82.0771 158.049 81.0092 145.838C79.7389 131.312 88.1939 117.515 99.7935 109.364C111.924 100.839 127.038 97.2794 141.66 96.4958C170.186 95.0755 198.221 104.321 220.312 122.434C231.269 131.54 241.503 143.139 245.381 157.149C248.749 169.316 246.008 183.099 236.228 191.621C233.809 193.709 230.983 195.273 227.929 196.214C224.875 197.154 221.66 197.451 218.486 197.086C210.897 196.298 203.895 192.306 197.834 187.896C186.044 179.319 176.365 167.371 162.001 162.889C151.469 159.602 137.801 162.495 131.365 172.025C129.905 174.206 128.958 176.691 128.597 179.292C128.464 179.846 128.547 180.431 128.828 180.927C129.11 181.423 129.569 181.793 130.113 181.963C130.668 182.113 131.26 182.038 131.76 181.754C132.26 181.47 132.628 181 132.784 180.446C134.473 168.444 149.224 163.965 159.575 166.706C174.667 170.703 184.798 184.177 197.18 192.738C203.69 197.239 211.095 200.838 219.079 201.484C225.963 202.024 232.794 199.925 238.187 195.611C248.765 187.253 252.811 172.879 250.471 159.937C247.763 144.95 237.681 132.105 226.619 122.16C204.194 102.213 175.08 91.4517 145.079 92.0215C129.777 92.3732 113.811 95.5338 100.629 103.626C87.8419 111.475 77.9587 124.607 76.6669 139.871C75.53 153.307 82.7345 167.36 95.1017 173.246C98.0177 174.628 101.145 175.511 104.352 175.859C107.124 176.175 107.101 171.829 104.352 171.515L104.352 171.515Z" fill="#3F3D56"/> </svg>