<svg width="405" height="300" viewBox="0 0 405 300" fill="none" xmlns="http://www.w3.org/2000/svg"> <rect width="405" height="300" fill="white"/> <path fill-rule="evenodd" clip-rule="evenodd" d="M221.907 149.194C220.609 151.398 219.312 153.601 218.014 155.805L206.009 176.188C205.09 177.748 204.656 179.302 204.101 181.047L201.048 190.65C199.532 189.869 198.016 189.087 196.5 188.305C195.045 187.555 192.427 186.807 191.286 185.617C190.279 184.567 189.782 182.103 189.233 180.769C187.64 176.901 186.046 173.033 184.452 169.164C182.038 163.303 179.623 157.442 177.21 151.58C184.46 152.276 191.711 152.972 198.962 153.668C206.611 152.177 214.259 150.686 221.907 149.194ZM209.988 87.4579C210.302 89.724 210.617 91.9901 210.931 94.2562C211.145 95.7949 211.03 97.5078 211.981 98.7195C214.285 101.656 218.121 103.687 219.08 107.39L220.08 111.25C220.208 111.744 220.874 113.158 220.699 113.639C220.407 114.44 217.607 115.473 216.881 115.858C214.13 117.318 211.283 118.735 208.296 119.646C205.196 120.592 202.695 120.207 199.889 118.528C198.1 117.457 195.01 115.64 193.96 113.737C193.237 112.427 193.277 110.118 193.003 108.633H185.35C183.791 108.633 181.156 108.11 179.91 108.981C179.159 109.506 178.526 110.624 177.909 111.305C176.92 112.398 175.894 113.46 174.823 114.474C172.553 116.625 169.975 118.84 167.004 119.941C163.412 121.273 160.031 119.405 157.226 117.137C155.945 116.101 152.995 113.763 152.841 111.991C152.682 110.165 154.288 108.002 155.557 106.898C157.842 104.91 160.555 103.372 163.181 101.888C167.261 99.582 171.462 97.4698 175.719 95.5104C176.39 97.2557 177.06 99.0006 177.731 100.745C178.207 101.985 178.684 103.225 179.161 104.465C179.398 105.083 179.622 106.411 180.089 106.883C180.636 107.435 182.056 107.142 182.907 107.142H190.092C190.994 107.142 193.074 107.547 193.902 107.135C194.552 106.812 195.26 105.475 195.708 104.926C200.468 99.1033 205.228 93.2808 209.988 87.4579Z" fill="#B9E2E4"/> <path fill-rule="evenodd" clip-rule="evenodd" d="M369.397 137.224C368.603 136.119 367.717 135.696 367.375 137.304C367.001 139.066 367.393 141.286 367.241 143.117C366.875 147.538 366.728 151.98 366.242 156.39C365.351 164.489 364.793 173.104 361.725 180.739C360.258 184.39 358.599 188.001 356.598 191.391C354.6 194.777 352.609 198.471 350.151 201.54C345.539 207.299 341.439 213.573 335.771 218.374C334.396 219.539 333.172 220.87 331.698 221.916C330.451 222.801 329.045 223.472 327.851 224.341C327.262 224.77 326.682 225.102 326.062 225.497C325.471 225.874 325.115 226.447 324.477 226.706C323.851 226.961 323.069 226.894 322.398 227.174C321.609 227.504 320.91 228.023 320.122 228.356C318.566 229.017 316.834 229.164 315.261 229.817C313.726 230.454 312.364 230.862 310.759 231.303C308.93 231.806 307.08 232.092 305.236 232.532C304.424 232.726 303.654 232.975 302.885 233.298C301.891 233.715 301.808 233.667 300.762 233.51C299.001 233.245 297.225 234.06 295.437 234.015C294.542 233.992 293.74 233.753 292.84 233.855C291.847 233.968 291.146 234.13 290.124 234.044C288.299 233.892 286.542 233.802 284.735 233.762C284.04 233.747 283.407 233.555 282.711 233.59C281.653 233.644 281.354 233.432 280.327 233.184C279.59 233.005 278.755 233.25 278.011 233.21C277.134 233.164 276.298 232.881 275.423 232.815C273.611 232.678 271.963 232.446 270.151 232.154C266.391 231.548 262.499 230.601 258.911 229.324C257.196 228.713 255.78 227.926 254.231 227.018C252.752 226.151 251.082 225.976 249.706 224.975C246.884 222.919 243.667 221.228 241.013 218.947C238.299 216.614 235.048 214.933 232.374 212.61C231.164 211.56 229.807 210.695 228.639 209.6C227.364 208.404 226.306 207.078 224.952 205.964C222.123 203.638 219.906 200.523 217.081 198.115C214.142 195.61 211.647 192.806 208.977 190.029C207.889 188.897 206.781 187.866 205.496 186.97C203.993 185.923 204.929 184.912 205.467 183.425C206.91 179.447 208.897 176.113 211.27 172.614C213.61 169.163 215.955 165.759 218.575 162.511C220.783 159.775 223.155 157.227 225.511 154.681C226.49 153.622 227.438 152.492 228.482 151.489C229.288 150.714 229.397 150.757 230.402 151.002C231.316 151.224 232.191 151.306 233.047 151.718C234.708 152.519 236.143 153.636 237.978 154.065C239.938 154.523 241.635 155.224 243.553 155.802C247.092 156.87 250.932 158.029 254.074 160.043C257.381 162.162 259.772 165.508 262.132 168.563C264.602 171.758 266.31 175.447 268.287 178.969C270.332 182.612 272.239 186.31 274.452 189.857C278.505 196.352 283.817 201.978 291.424 203.863C294.75 204.688 298.909 205.731 302.152 204.102C303.572 203.388 304.794 202.332 306.198 201.583C307.833 200.712 309.49 199.961 310.886 198.716C313.616 196.279 316.577 194.126 319.205 191.559C321.629 189.19 323.745 186.495 326.008 183.967C327.138 182.706 328.064 181.267 329.017 179.871C329.49 179.178 329.823 178.373 330.291 177.693C330.719 177.071 331.32 176.668 331.784 176.075C332.713 174.889 333.42 173.404 334.271 172.145C335.348 170.552 336.2 168.845 336.89 167.053C338.33 163.305 338.865 159.732 339.197 155.757C340.36 156.722 343.497 156.767 344.232 155.325C345.424 152.987 342.877 152.615 341.549 151.571C340.643 150.859 340.047 149.858 339.383 148.937C338.933 148.313 337.68 147.299 337.512 146.542C337.259 145.406 338.522 144.254 339.104 143.397C339.919 142.197 340.675 140.956 341.473 139.744C344.541 135.085 347.804 130.463 351.56 126.327C353.234 124.484 355.011 122.56 357.049 121.124C358.859 119.849 360.636 117.359 362.882 116.909C361.618 118.853 358.136 122.905 360.567 125.352C362.558 127.356 366.484 122.875 368.949 123.232C367.564 125.215 365.159 128.464 366.958 131.002C368.501 133.179 371.331 129.608 373.227 129.608C371.951 132.147 370.674 134.685 369.397 137.224ZM203.422 167.092C202.224 167.011 200.89 167.769 201.03 169.103C201.165 170.395 202.676 170.494 202.84 171.637C202.995 172.717 201.696 174.783 201.324 175.824C201.096 176.461 200.711 179.001 199.96 179.279C198.927 179.661 197.38 177.627 196.388 178.546C195.602 179.273 196.507 180.94 196.969 181.566C197.703 182.559 199.282 182.658 199.695 183.767C200.068 184.765 199.672 186.8 199.672 187.876C198.352 187.183 197.495 186.852 196.92 185.447C196.377 184.121 196.16 184.383 194.88 183.642C193.805 183.019 193.205 181.861 192.466 180.903C191.678 179.881 190.556 178.828 190.332 177.499C192.183 177.499 194.023 177.588 195.171 175.833C196.198 174.262 195.14 173.077 193.426 173.304C192.47 173.431 189.89 174.984 189.041 174.475C188.561 174.187 188.464 173.178 188.298 172.684C187.899 171.498 187.444 170.339 187.076 169.141C186.726 168.003 186.413 166.855 186.125 165.7C185.961 165.049 185.217 163.362 185.584 162.793C186.292 161.695 188.123 162.746 188.229 160.666C188.34 158.468 186.185 158.473 184.71 158.569C182.789 158.693 181.835 156.07 180.871 154.689C183.413 155.103 185.884 155.833 188.438 156.196C190.512 156.49 192.585 155.542 193.423 157.928C193.721 158.777 194.796 161.541 196.21 160.131C197.043 159.301 196.026 157.428 195.639 156.568C199.754 155.803 203.949 155.972 208.067 155.022C210.029 154.57 211.837 153.703 213.754 153.11C215.253 152.646 216.983 151.612 218.527 151.462C218.166 152.673 216.604 153.67 215.777 154.577C214.523 155.954 213.323 157.38 212.115 158.797C211.472 157.737 210.63 155.771 209.317 155.401C207.367 154.85 207.225 157.456 207.677 158.692C207.991 159.548 208.519 160.034 209.098 160.685C210.078 161.791 209.426 162.15 208.502 163.284C207.729 164.232 207.054 165.205 206.34 166.194C205.24 167.714 205.046 167.201 203.422 167.092ZM182.193 181.846C178.409 181.225 174.365 181.087 170.532 180.863C166.946 180.654 163.252 180.589 159.656 180.697C156.076 180.804 152.415 180.456 148.854 180.884C145.536 181.283 142.185 180.501 138.802 180.358C137.379 180.298 135.939 180.678 134.516 180.507C133.801 180.421 133.172 180.166 132.44 180.178C131.403 180.195 130.403 180.483 129.358 180.478C125.591 180.46 121.425 179.559 117.725 180.724C116.124 181.228 114.62 181 112.983 181.394C111.399 181.774 109.878 182.326 108.308 182.732C105.102 183.561 102.158 184.665 99.1014 186.021C93.1557 188.658 87.3766 193.15 84.6921 199.242C83.1686 202.7 82.4588 206.704 83.0573 210.446C83.633 214.045 84.1172 217.973 86.0595 221.123C89.679 226.994 93.5478 233.105 99.612 236.707C102.611 238.488 105.289 240.8 108.278 242.557C109.588 243.326 111.127 243.521 112.408 244.317C113.54 245.02 114.682 245.822 115.792 246.571C117.093 247.449 117.972 248.331 117.492 249.98C117.015 251.62 115.744 253.266 114.742 254.624C112.309 257.92 109.868 261.289 107.344 264.512C106.002 266.227 104.339 267.563 102.641 268.908C101.523 269.794 99.7484 270.645 98.91 271.81C98.3551 272.582 98.7709 273.078 98.4596 273.815C98.1708 274.498 97.4696 274.733 96.8455 275.074C94.8419 276.166 92.9384 276.447 90.7942 277.092C91.6131 274.968 92.6752 272.764 92.3413 270.42C92.0672 268.499 91.0871 267.666 89.3395 268.685C87.5029 269.756 85.7467 271.038 83.8928 272.069C82.029 273.106 79.666 273.576 77.6218 274.147C78.5501 272.219 79.6739 270.2 79.1573 267.982C78.6798 265.932 77.5951 265.522 75.9318 266.646C72.3777 269.048 66.7317 270.272 62.5335 269.187C63.1734 266.981 65.4406 265.12 66.9246 263.462C68.6819 261.499 70.4659 259.565 72.3943 257.768C74.2147 256.07 75.9149 254.362 77.5745 252.513C77.8305 252.228 78.0279 251.814 78.3997 251.652C78.8009 251.478 79.3908 251.816 79.7142 251.527C80.3138 250.991 79.4739 250.223 79.1122 249.729C80.2612 249.458 81.5662 250.773 82.6261 250.025C84.3244 248.825 82.725 246.039 81.7237 245.04C78.8915 242.214 75.5491 240.053 72.9417 236.956C70.1219 233.607 66.9189 230.546 64.2119 227.11C61.7466 223.981 58.9764 220.697 57.4481 216.99C55.7949 212.982 54.9583 209.009 55.4321 204.674C55.9171 200.235 56.8807 195.813 57.771 191.441C58.5264 187.734 60.7296 184.183 62.8903 181.123C64.9597 178.192 66.9791 174.745 69.4917 172.182C70.7291 170.92 72.3221 170.098 73.5985 168.885C75.0558 167.499 76.1202 166.582 77.9305 165.654C79.7066 164.745 81.4309 163.733 83.2021 162.813C84.9632 161.897 86.6614 161.179 88.4646 160.382C89.9843 159.711 91.4803 159.468 93.0395 158.854C95.0581 158.061 97.1196 157.394 99.242 156.937C102.928 156.145 106.535 155.177 110.205 154.415C111.945 154.054 113.761 154.064 115.464 153.671C117.298 153.248 119.016 153.164 120.875 152.862C122.548 152.59 124.214 152.597 125.906 152.372C126.905 152.24 127.912 152.4 128.909 152.279C130.134 152.131 130.997 151.876 132.242 151.945C133.942 152.039 135.294 151.099 136.926 151.344C138.485 151.578 139.967 151.154 141.51 150.89C142.326 150.75 142.952 150.984 143.762 151.008C144.864 151.041 145.992 150.806 147.106 150.796C149.386 150.775 151.68 150.645 153.958 150.699C158.507 150.806 162.97 150.799 167.52 151.462C168.604 151.621 169.683 152.091 170.747 152.217C171.624 152.321 172.054 152.114 172.942 152.515C174.689 153.305 175.878 155.44 176.788 157.065C179.089 161.173 179.793 166.078 181.158 170.535C182.567 175.135 184.432 179.037 187.086 183.017C185.432 182.724 183.852 182.117 182.193 181.846ZM163.794 131.403C162.27 128.26 161.434 124.847 160.16 121.605C161.518 121.398 162.986 121.95 164.361 121.993C166.021 122.046 167.488 121.968 169.114 121.595C172.13 120.903 175.518 119.65 177.912 117.631C179.094 116.633 179.98 115.399 180.563 113.97C180.922 113.091 181.14 112.193 181.318 111.266C181.362 111.035 181.349 109.901 181.543 109.73C181.976 109.345 184.121 109.27 184.719 109.317C186.357 109.445 188.004 109.663 189.671 109.771C190.963 109.856 192.285 109.67 192.781 111.04C193.214 112.232 193.039 113.674 193.441 114.916C194.316 117.624 196.444 120.388 199.109 121.511C201.766 122.63 205.903 122.853 208.706 122.47C212.124 122.002 214.597 119.82 217.167 117.776C217.167 124.496 216.943 131.073 218.921 137.603C219.367 139.075 219.908 140.528 220.595 141.906C220.909 142.534 222.437 144.323 222.286 144.988C222.119 145.717 219.247 146.474 218.571 146.704C216.917 147.266 215.248 147.805 213.586 148.34C210.622 149.292 207.398 150.076 204.301 150.291C201.278 150.501 198.302 150.43 195.279 150.495C192.263 150.559 189.591 150.188 186.635 149.507C183.297 148.738 179.786 148.355 176.491 147.468C173.612 146.692 171.751 143.559 169.985 141.354C167.527 138.285 165.51 134.939 163.794 131.403ZM159.541 114.591C158.958 115.064 156.537 114.054 156.033 113.663C155.334 113.121 155.194 111.178 156.195 110.673C157.149 110.191 160.278 111.777 158.843 109.016C158.52 108.394 158.04 108.417 158.33 107.656C158.497 107.221 159.591 106.538 159.989 106.388C161.638 105.767 161.833 107.571 163.247 108.158C164.68 108.754 166.331 108.349 167.806 108.936C168.37 109.16 168.656 109.588 169.128 108.989C169.361 108.692 169.25 107.906 169.161 107.57C168.727 105.937 166.465 104.909 165.227 103.962C168.368 102.369 171.298 100.863 174.072 98.6726C174.279 99.2386 174.864 100.142 174.469 100.75C174.246 101.092 173.083 101.488 172.725 101.815C171.641 102.807 170.179 105.046 171.328 106.534C172.722 108.339 176.048 105.201 176.999 104.125C178.706 105.841 178.588 109.757 177.271 111.596C177.059 110.07 174.176 107.682 172.897 109.471C171.088 112.001 175.697 112.47 177.039 112.159C176.285 113.375 174.861 115.308 173.33 115.522C171.881 115.726 171.209 113.822 170.349 112.883C169.601 112.067 167.976 110.156 167.199 111.793C166.429 113.415 168.138 115.244 168.977 116.441C167.813 116.592 166.695 117.127 165.5 117.003C164.929 116.944 163.573 116.874 163.094 116.697C161.62 116.153 161.944 113.879 162.312 112.661C162.686 111.422 163.074 109.304 160.888 110.202C158.565 111.155 160.777 113.589 159.541 114.591ZM177.864 93.6336C178.845 92.0072 179.642 90.2536 180.242 88.4523C180.838 86.6641 180.812 85.2161 182.572 84.3393C185.747 82.7573 189.459 81.0135 191.792 78.2424C192.698 77.1662 193.118 75.4871 194.393 74.8316C195.964 74.0248 198.085 73.6211 199.771 73.0197C201.744 72.316 203.818 71.9484 205.754 71.1427C207.124 70.5726 209 69.4776 210.477 69.3564C210.38 70.8135 210.094 72.3108 210.31 73.7716C210.456 74.756 211.697 76.0832 211.586 76.8847C211.532 77.2693 210.954 77.4289 210.73 77.7506C210.454 78.1487 210.442 78.7038 210.347 79.1565C210.033 80.6564 209.814 82.1597 209.294 83.6115C207.114 89.6865 201.234 93.7969 197.271 98.6591C196.212 99.9588 195.249 101.319 194.359 102.741C193.798 103.637 193.281 105.273 192.217 105.688C190.939 106.186 188.447 105.395 187.129 105.315C185.834 105.236 184.784 105.694 183.533 105.606C182.235 105.514 181.278 106.1 180.671 104.747C180.183 103.661 180.146 102.308 179.763 101.173C178.952 98.7603 176.278 96.2662 177.864 93.6336ZM187.445 62.6421C185.621 62.7008 183.976 61.8545 182.461 60.9325C185.563 59.6791 188.738 59.8657 191.854 60.8016C190.636 61.8974 189.093 62.589 187.445 62.6421ZM180.195 54.2754C180.959 51.4621 183.156 48.2165 185.246 46.2274C185.599 47.9554 186.911 47.6374 188.123 48.2101C189.158 48.6993 189.287 49.6928 190.503 49.9916C191.41 50.2143 192.932 50.3453 193.655 49.5994C194.843 48.3735 193.471 47.6224 192.508 47.0895C193.249 46.0927 194.038 45.1241 194.851 44.1837C195.413 43.5335 196.506 42.6277 196.542 41.6798C196.599 40.2231 195.437 40.8414 194.571 41.2907C194.161 41.5033 193.59 42.0008 193.126 42.0839C192.682 42.1633 192.244 41.8687 191.845 41.9801C190.877 42.2499 189.073 45.4748 187.668 43.9805C187.085 43.3604 188.332 41.4013 188.69 40.8892C189.897 39.1638 192.233 39.7588 194.12 39.6105C196.181 39.4483 198.244 39.0261 200.304 38.9162C202.608 38.7936 203.628 40.7127 205.243 42.1562C206.778 43.5282 209.098 45.0353 211.082 45.6701C212.98 46.2771 213.857 45.8248 213.932 48.1725C214.099 53.361 219.885 50.6911 223.188 51.2142C225.117 51.5193 225.434 52.6689 223.824 53.8441C223 54.4451 222.036 54.6652 221.058 54.8267C219.817 55.0317 219.334 55.3147 218.277 56.0229C214.797 58.353 209.063 59.6068 205.02 58.5261C202.786 57.9289 200.497 56.8226 198.628 55.4637C197.015 54.2912 195.534 52.8575 193.674 52.071C191.421 51.1186 189.279 51.8558 186.948 51.8373C184.009 51.8136 182.429 52.3619 180.195 54.2754ZM213.62 71.1318C213.94 70.2009 215.911 65.2107 217.346 65.8188C217.711 65.9735 218.388 67.975 218.659 68.34C219.529 69.5137 220.769 70.4022 221.996 71.1631C219.959 72.8587 217.069 73.282 214.795 74.5851C212.31 76.0091 213.148 72.5057 213.62 71.1318ZM206.236 115.964C205.057 115.857 203.876 115.766 202.695 115.681C201.643 115.606 200.45 115.211 199.43 115.205C198.552 115.2 197.954 115.813 197.12 115.265C196.417 114.804 196.176 113.631 195.837 112.928C197.5 113.021 200.783 114.414 202.125 112.887C203.06 111.823 202.219 110.204 201.197 109.573C199.283 108.392 197.769 109.41 195.926 110.029C195.944 107.776 197.083 106.717 198.495 105.172C200.007 103.517 201.617 101.812 202.921 99.9867C204.021 100.888 206.69 103.146 208.006 101.371C209.332 99.5833 206.69 97.9644 205.44 97.2829C206.478 95.8459 207.516 94.4084 208.553 92.9709C208.914 95.0428 208.82 97.1162 209.696 99.0711C210.496 100.859 211.613 102.713 213.113 103.99C211.702 104.846 210.292 107.267 211.77 108.671C212.605 109.463 213.364 109.154 214.21 108.604C215.347 107.865 215.617 107.444 216.899 108.083C217.461 108.363 218.399 108.782 218.259 109.449C218.143 110.002 216.573 110.984 216.159 111.373C214.267 113.155 212.141 114.538 209.948 115.917C209.613 114.799 209.282 111.431 207.565 111.598C205.904 111.759 206.236 114.831 206.236 115.964ZM234.184 71.5796C247.039 68.2091 259.746 64.6933 272.83 62.2353C276.006 61.6389 279.206 61.1877 282.379 60.5875C285.508 59.9955 288.697 59.804 291.816 59.2151C298.097 58.0294 304.397 57.2181 310.779 56.6502C317.009 56.0955 323.132 55.8709 329.337 56.9208C331.915 57.3573 334.659 57.1906 337.164 57.8608C338.429 58.1991 339.851 58.4933 341.027 59.0762C342.336 59.7254 343.451 60.811 344.681 61.6035C347.169 63.2058 348.713 64.8939 350.319 67.3714C352.016 69.9913 352.161 73.194 352.232 76.2902C352.303 79.3664 351.471 82.3528 350.567 85.2631C349.643 88.2393 349.233 91.5387 347.886 94.3572C347.568 95.0236 346.264 97.6182 345.172 97.292C344.472 97.0827 344.539 95.9339 344.494 95.3348C344.356 93.4755 344.139 88.8496 340.999 90.8617C339.784 91.6407 338.86 93.1143 337.953 94.2025C336.826 95.5535 335.697 96.9021 334.559 98.2436C332.576 100.581 330.615 103.89 327.79 105.277C328.001 103.876 331.472 89.9428 327.13 91.5346C326.342 91.8236 325.654 92.9295 325.138 93.5583C324.166 94.744 323.238 95.9644 322.324 97.1956C320.708 99.3733 319.126 101.574 317.555 103.784C316.089 105.846 314.428 107.779 312.626 109.558C311.626 110.545 307.604 114.428 307.278 110.823C307.213 110.096 307.559 109.243 307.692 108.534C307.963 107.101 308.129 105.646 308.38 104.21C308.894 101.267 309.608 98.3784 310.373 95.4936C311.124 92.6646 311.66 89.8649 311.689 86.9328C311.718 84.0315 311.809 80.8965 310.244 78.3256C309.085 76.4219 307.081 74.2619 305.11 73.2527C302.439 71.8852 299.802 71.9586 296.908 71.5529C291.172 70.7495 285.084 71.5796 279.391 72.4568C274.046 73.2805 268.957 74.9137 263.754 76.1566C257.903 77.5545 252.324 79.7469 246.679 81.5863C240.454 83.6141 234.232 85.7794 228.125 88.1542C228.425 87.0964 228.393 86.0206 228.621 84.9621C228.801 84.1255 229.276 83.7824 229.637 83.0591C230.398 81.5336 230.039 79.3051 227.995 79.3555C226.292 79.3973 224.356 80.7862 222.992 81.6664C221.602 82.5639 218.614 83.9603 217.784 85.5024C215.553 89.6497 224.338 87.6462 222.805 91.0228C222.384 91.95 221.833 91.874 221.941 93.0958C222.062 94.4547 222.016 95.0947 221.555 96.4434C220.742 98.8269 220.374 101.342 219.521 103.706C217.205 100.906 212.979 97.7176 212.486 93.8936C211.961 89.8145 213.996 85.9431 214.983 82.1067C215.377 80.574 215.06 78.4994 215.678 77.0947C216.385 75.4898 219.118 75.5338 220.602 75.2267C225.176 74.2792 229.664 72.7646 234.184 71.5796ZM377.479 126.855C377.243 125.144 375.894 124.012 374.288 123.67C372.707 123.332 373.476 123.155 373.53 121.445C373.579 119.916 373.283 118.046 371.878 117.172C370.606 116.381 368.93 116.656 367.509 116.594C368.496 113.74 369.476 109.35 365.103 110.12C361.569 110.742 358.931 113.115 356.075 115.195C353.157 117.321 350.634 119.324 348.173 121.97C345.701 124.628 343.364 127.415 341.28 130.39C339.196 133.366 337.395 136.517 335.941 139.847C334.574 142.982 333.339 146.007 334.052 149.475C334.422 151.273 335.281 152.942 335.583 154.752C335.896 156.616 335.483 158.502 334.961 160.289C333.964 163.706 332.218 166.708 330.241 169.638C328.568 172.117 327.112 174.579 325.073 176.765C322.528 179.494 320.037 182.219 317.376 184.844C315.272 186.917 312.72 189.024 310.297 190.722C308.827 191.752 307.065 192.22 305.472 193.012C303.985 193.751 302.724 194.51 301.109 194.964C299.476 195.423 297.764 196.221 296.044 196.185C294.315 196.147 292.444 195.301 290.794 194.802C287.353 193.76 284.722 192.751 282.261 190.04C277.046 184.297 273.61 177.003 269.753 170.291C266.241 164.177 262.099 157.339 256.403 152.988C253.68 150.908 250.467 149.423 247.326 148.102C245.781 147.452 244.097 147.22 242.492 146.767C241.057 146.361 239.539 146.37 238.197 145.809C236.58 145.134 235.047 143.911 233.257 143.711C232.682 143.647 232.217 143.867 231.661 143.678C230.98 143.446 230.348 142.711 229.634 142.396C226.357 140.953 224.487 139.524 222.986 136.208C221.427 132.762 220.403 129.113 220.554 125.302C220.628 123.431 220.894 121.545 221.231 119.705C221.547 117.979 221.583 116.146 221.989 114.463C222.163 113.74 222.523 113.07 222.677 112.338C222.82 111.664 222.699 110.869 222.974 110.23C223.214 109.671 223.665 109.487 223.972 109.011C224.521 108.161 224.106 107.646 224.012 106.764C223.843 105.162 224.561 103.419 224.87 101.855C225.255 99.9009 225.842 98.0085 226.286 96.0709C226.565 94.8573 226.547 93.5041 227.631 92.7052C228.795 91.8461 231.003 91.7539 232.393 91.3923C236.194 90.4034 239.969 89.3512 243.77 88.3683C245.584 87.8995 247.35 87.3196 249.085 86.6155C250.105 86.202 250.5 86.3431 251.534 86.24C252.314 86.1625 252.958 85.6842 253.695 85.4847C255.229 85.0708 256.114 85.8957 257.431 86.5064C258.927 87.1999 260.867 87.5047 262.492 87.738C265.814 88.2152 269.883 87.6643 273.186 87.0889C276.904 86.4409 280.665 85.3685 283.898 83.4252C284.535 83.0425 285.024 82.6 285.747 82.7776C286.329 82.9202 286.83 83.715 287.313 84.0552C288.774 85.0851 290.556 85.3628 292.222 84.6719C293.577 84.1105 294.481 83.0994 295.087 81.7827C295.551 80.7765 295.735 79.2306 296.882 78.755C298.024 78.2816 300.42 78.8423 301.626 79.0748C303.166 79.371 304.394 80.2635 305.564 81.3044C308.155 83.6108 308.462 86.6494 307.951 89.9119C306.752 97.5727 303.69 104.908 303.86 112.784C303.924 115.793 305.171 118.6 308.758 118.246C310.525 118.071 311.568 116.804 312.887 115.784C314.365 114.641 315.671 113.458 316.913 112.056C319.534 109.101 321.785 105.861 324.166 102.716C324.444 105.582 322.948 108.431 324.791 111.079C326.301 113.249 328.423 111.745 329.857 110.312C331.995 108.175 333.956 105.774 335.878 103.444C337.421 101.572 339.001 98.5108 341.095 97.2393C341.027 99.6153 342.616 103.683 345.592 102.619C348.34 101.636 350.161 97.7571 351.339 95.3273C352.049 93.8612 352.686 92.3602 353.369 90.8817C354.145 89.2056 354.282 87.7565 354.647 85.9864C355.356 82.5387 355.976 79.1346 356.51 75.6459C357.062 72.0327 356.465 68.8815 355.225 65.4952C354.703 64.0713 354.6 62.7188 353.692 61.442C352.746 60.1133 351.511 58.7929 350.315 57.6862C347.806 55.364 344.545 54.5478 341.518 53.1623C339.859 52.4036 338.445 52.3348 336.688 52.0947C335.018 51.867 333.426 51.4298 331.732 51.335C327.398 51.0922 323.108 50.2354 318.751 50.5026C316.726 50.6271 314.69 50.7453 312.664 50.8198C311.043 50.8792 308.754 51.3632 307.195 50.8984C308.008 49.196 309.699 47.803 309.635 45.7691C309.573 43.8225 307.953 42.8403 306.274 42.3357C304.021 41.6591 301.504 41.2674 299.151 41.3562C297.19 41.4299 294.472 42.2288 292.637 41.1959C293.85 39.5473 295.193 37.7764 295.47 35.6838C295.835 32.9217 293.612 31.4293 291.334 30.4103C288.98 29.3578 286.171 29.0729 283.648 28.6989C281.073 28.3165 278.564 28.0934 275.98 28.4027C270.811 29.0221 265.642 29.6622 260.46 30.3941C255.62 31.0779 250.226 32.2764 245.393 31.0485C240.278 29.7484 242.074 25.2899 239.953 21.6361C237.587 17.5584 231.674 17.4764 227.595 17.7647C222.597 18.118 216.742 20.2038 212.395 22.6532C211.503 23.1559 210.555 23.5518 209.684 24.0722C208.798 24.6006 208.132 25.3769 207.107 25.6794C204.7 26.3888 201.906 24.9739 199.462 24.9148C194.176 24.7876 187.953 27.3927 184.194 31.1328C181.788 33.5264 178.584 40.7868 182.681 43.2309C180.906 45.0955 179.618 47.3477 178.62 49.7078C178.121 50.8894 177.698 52.103 177.304 53.3237C177.023 54.1994 176.873 55.6387 176.222 56.3405C175.585 57.0276 174.687 57.445 174.033 58.1976C173.176 59.1842 172.38 60.2153 171.712 61.3404C170.609 63.1949 169.66 65.362 169.383 67.5182C169.128 69.4949 169.545 71.4536 171.145 72.7691C172.057 73.5191 173.201 73.9424 174.371 74.0278C175.648 74.1212 176.964 73.4698 178.203 73.6117C179.221 73.7279 179.112 74.2514 179.757 74.949C180.492 75.743 181.619 76.1506 182.651 76.3726C183.609 76.5784 184.611 76.6194 185.571 76.4057C186.807 76.1306 187.865 75.2211 189.14 75.1402C187.237 76.8844 185.221 78.5085 183.078 79.9493C180.742 81.5196 178.524 82.0314 175.813 82.6113C170.457 83.7568 165.359 85.4799 159.889 86.0808C157.288 86.3664 154.739 86.9407 152.122 87.1518C148.914 87.4103 145.703 87.4058 142.489 87.355C140.005 87.3158 137.48 87.3512 135.031 86.8857C132.398 86.3849 129.673 86.5489 126.988 86.5606C124.232 86.5723 121.492 86.5248 118.748 86.249C116.137 85.9864 113.595 84.6279 111.098 83.8354C105.972 82.2075 101.245 79.5474 97.0613 76.1999C95.0405 74.5829 92.8098 73.1654 91.0243 71.2752C89.4038 69.56 87.8687 67.5111 86.4152 65.6446C83.2423 61.57 82.3012 56.3432 79.807 51.9367C78.5088 49.6431 75.7092 43.6923 72.9439 47.9828C71.3412 50.4702 71.1001 53.6714 70.4783 56.4922C69.2018 54.1644 67.9758 51.8001 66.6369 49.5073C66.006 48.4265 64.942 46.4645 63.3949 46.9999C61.9128 47.5132 61.2191 50.4348 60.8961 51.7417C60.2675 54.2844 60.2461 56.9494 59.1464 59.372C58.2865 57.5853 57.6631 55.3527 55.6923 54.4767C53.2785 53.4042 50.8903 54.5407 49.6849 56.7304C46.7128 62.1292 47.2275 69.1367 48.2333 74.9776C50.1992 86.3958 55.587 97.5599 64.295 105.36C66.3692 107.218 68.7815 108.639 71.046 110.242C71.9559 110.887 72.7706 111.459 73.8715 111.708C75.263 112.023 75.8965 112.848 77.2162 113.432C82.1437 115.615 87.6837 115.817 92.7331 117.508C93.9129 117.903 95.1382 117.66 96.303 118.054C97.5862 118.487 98.4664 118.55 99.7879 118.764C102.502 119.203 105.389 119.943 108.176 119.995C110.963 120.047 113.663 120.408 116.471 120.562C119.364 120.721 122.056 120.555 124.938 120.204C131.193 119.442 137.977 119.27 143.757 116.58C146.007 115.532 147.866 114.189 149.541 112.352C150.008 111.841 151.315 110.469 150.803 109.643C150.245 108.742 149.013 109.589 148.278 109.912C142.547 112.434 136.253 113.099 130.062 113.609C127.167 113.847 124.231 114.27 121.329 114.347C119.833 114.386 118.519 114.233 117.074 113.931C115.42 113.585 113.749 113.736 112.08 113.544C109.181 113.213 106.303 112.69 103.412 112.335C100.987 112.037 98.2746 112.434 96.0782 111.325C94.0313 110.292 91.5773 110.114 89.3696 109.394C86.7682 108.545 84.0811 108.079 81.5249 107.043C80.2518 106.528 78.9723 106.269 77.7008 105.846C76.674 105.505 75.804 104.669 74.7738 104.205C72.3563 103.116 70.1523 101.11 68.2927 99.2412C64.131 95.0605 60.6273 90.0764 57.8759 84.839C56.3525 81.9389 55.4817 78.3568 54.4485 75.2452C53.4868 72.3484 52.6408 69.1126 52.1389 66.1029C51.9603 65.0331 50.6982 59.6207 52.457 59.5767C54.8869 59.5165 56.445 63.8289 57.1206 65.5234C58.1376 68.074 59.4084 71.606 61.5173 73.4833C63.4889 75.2384 64.6401 71.9002 64.61 70.3435C64.5882 69.2127 64.1679 68.7137 63.5532 67.8196C62.685 66.556 62.3865 65.5505 62.3162 63.9832C62.1557 60.3967 62.8185 56.8425 63.4302 53.3267C64.901 55.9176 66.4651 58.4155 67.4851 61.2291C68.0179 62.6981 68.8116 67.0162 71.1817 66.302C72.6409 65.8625 73.227 63.6701 73.4391 62.361C73.9128 59.4401 73.606 56.4929 74.4204 53.6041C75.4427 54.0936 75.9367 56.0865 76.3841 57.0389C77.2805 58.9445 77.9456 60.8565 78.5704 62.863C79.7694 66.7155 82.1087 69.9314 84.4349 73.1752C86.7889 76.4576 89.5944 79.2524 92.8162 81.6864C95.959 84.0601 99.6251 86.7096 103.339 88.0797C105.248 88.7842 107.226 89.256 109.127 89.9928C109.985 90.3251 110.836 90.68 111.707 90.9773C112.885 91.3788 114.04 91.378 115.202 91.6787C117.061 92.16 118.612 92.6119 120.568 92.6699C122.467 92.7263 124.372 92.6845 126.263 92.8381C130.146 93.1534 134.215 93.2185 138.118 93.217C142.519 93.2155 147.007 93.302 151.337 92.4286C155.754 91.5379 160.256 90.9242 164.613 89.8325C169.589 88.5855 174.523 87.0821 179.472 85.7275C177.324 89.6226 173.45 93.6678 169.502 95.704C167.535 96.7185 165.503 97.902 163.448 98.7012C161.204 99.5739 158.985 100.201 156.879 101.408C154.596 102.717 153.805 103.966 152.712 106.28C151.618 108.596 150.864 110.821 151.151 113.446C151.373 115.473 152.214 117.64 153.707 119.072C154.474 119.808 155.421 120.354 156.442 120.656C157.597 120.998 158.015 120.754 158.312 121.933C158.508 122.713 158.284 123.821 158.412 124.67C158.591 125.845 158.881 127.003 159.181 128.151C159.864 130.776 160.606 133.415 161.792 135.864C162.767 137.874 164.02 139.723 165.356 141.507C165.865 142.188 166.842 143.016 167.149 143.809C167.365 144.367 167.087 145.786 166.425 146.122C166.074 146.3 164.307 145.569 164.054 145.509C163.016 145.26 162.038 145.06 161.05 144.707C158.674 143.858 155.824 143.804 153.297 143.528C151.074 143.286 148.812 142.984 146.572 143.068C145.53 143.108 144.501 143.478 143.481 143.509C142.392 143.542 141.416 143.286 140.306 143.349C139.288 143.408 138.927 143.398 137.949 143.707C136.91 144.035 136.41 143.69 135.379 143.587C134.179 143.467 133.09 144.036 131.905 144.047C130.763 144.057 129.643 143.943 128.487 143.988C126.377 144.068 124.192 144.515 122.131 144.481C120.912 144.461 120.089 144.642 118.905 144.888C117.58 145.163 116.211 144.712 114.911 145.087C113.099 145.61 111.163 145.613 109.249 146.008C107.159 146.44 105.146 147.106 103.033 147.425C98.5107 148.109 94.0212 149.516 89.6813 150.955C71.0317 157.136 55.6163 173.759 52.1145 193.338C51.1031 198.994 49.677 205.36 50.3237 211.111C50.9429 216.623 53.0928 222.243 55.972 226.953C58.7865 231.556 62.2602 235.935 66.0861 239.732C67.9833 241.615 69.7914 243.634 71.892 245.295C72.7676 245.988 73.5391 246.878 74.4384 247.523C75.5137 248.294 76.8939 248.658 78.1057 249.154C73.6568 251.669 69.4113 254.876 65.7346 258.432C62.5512 261.51 58.4196 265.914 58.8775 270.736C59.5092 277.394 68.5841 275.244 72.8578 274.323C72.8578 277.512 72.8834 281.34 77.1737 280.971C78.9686 280.816 81.1165 280.059 82.6765 279.167C84.086 278.361 84.9944 278.025 86.6073 277.654C86.6073 279.189 86.2607 281.396 87.5044 282.584C88.8549 283.873 91.3502 283.783 92.9914 283.297C96.7617 282.182 100.823 280.97 103.275 277.62C104.468 275.991 105.576 274.199 106.298 272.305C106.64 271.407 106.651 270.233 107.242 269.464C107.792 268.749 108.818 268.266 109.491 267.671C110.953 266.381 112.174 264.836 113.444 263.365C114.963 261.606 116.662 259.991 118.049 258.121C120.555 254.744 122.335 250.453 121.464 246.192C120.65 242.21 117.36 238.513 113.474 237.599C111.641 237.168 110.481 235.685 109.045 234.591C107.488 233.405 105.72 232.223 104.057 231.198C102.267 230.095 100.389 228.874 98.7299 227.584C97.0651 226.289 95.7905 224.383 94.4874 222.741C91.7747 219.324 88.6797 215.765 87.7939 211.381C87.439 209.625 86.9344 207.715 87.4991 205.965C88.0965 204.114 89.4125 202.626 90.6126 201.148C93.2403 197.912 97.0132 195.993 100.771 194.39C102.805 193.522 104.818 192.816 106.88 192.156C107.616 191.921 108.191 191.451 108.957 191.264C110.027 191.003 111.169 190.904 112.253 190.657C114.324 190.186 116.138 189.662 118.265 189.645C120.698 189.626 123.126 189.439 125.545 189.191C127.658 188.974 129.472 189.283 131.553 189.331C132.45 189.351 133.364 189.182 134.26 189.229C135.358 189.287 136.392 189.586 137.509 189.607C139.327 189.641 141.02 189.83 142.799 189.583C143.682 189.46 144.434 189.723 145.326 189.635C145.544 189.614 145.754 189.333 145.959 189.328C146.365 189.319 146.589 189.526 147.002 189.573C151.315 190.072 155.621 189.192 159.929 189.383C164.143 189.57 168.531 189.311 172.756 189.067C176.938 188.825 181.656 188.397 185.544 186.704C186.992 186.074 187.903 184.513 189.295 185.576C191.052 186.917 192.473 188.55 194.411 189.713C196.071 190.71 198.123 191.022 199.976 191.498C200.849 191.723 201.913 192.198 202.819 192.044C203.977 191.848 203.857 191.281 204.67 192.388C205.872 194.029 206.645 195.943 207.929 197.558C209.287 199.267 210.806 200.967 212.375 202.485C215.276 205.29 218.034 208.271 220.901 211.141C222.378 212.62 223.296 214.477 224.837 215.885C226.286 217.209 227.682 218.639 229.164 219.921C232.57 222.869 236.311 225.476 239.903 228.191C241.634 229.5 243.147 231.001 245.044 232.084C246.879 233.131 248.839 234.091 250.582 235.236C254.003 237.481 257.993 238.881 261.922 240.194C264.028 240.898 266.163 241.481 268.348 241.874C270.346 242.233 272.234 242.367 274.224 242.606C276.056 242.826 277.908 242.897 279.726 243.141C280.799 243.284 281.086 243.113 282.025 242.972C282.866 242.846 283.492 243.287 284.365 243.332C288.352 243.534 292.435 243.852 296.46 243.503C298.548 243.322 300.407 243.456 302.417 242.784C304.413 242.116 306.556 242.322 308.573 241.602C312.466 240.213 316.547 239.45 320.334 237.674C321.922 236.928 323.96 236.421 325.364 235.352C325.945 234.91 326.322 234.384 326.912 234.023C327.686 233.55 328.765 233.065 329.62 232.71C331.173 232.063 332.225 230.869 333.587 229.876C335.344 228.597 337.083 227.341 338.618 225.788C341.444 222.928 344.182 220.115 346.637 216.888C352.204 209.569 357.065 201.653 361.352 193.518C366.021 184.66 367.879 175.342 368.739 165.438C369.167 160.522 369.523 155.589 369.853 150.666C370.007 148.372 370.138 146.061 370.04 143.762C369.998 142.784 369.686 141.468 370.03 140.51C370.359 139.597 371.331 138.905 371.947 138.189C374.289 135.472 378.004 130.672 377.479 126.855Z" fill="black"/> <path fill-rule="evenodd" clip-rule="evenodd" d="M193.53 164.564C192.347 163.896 193.984 162.018 192.667 161.542C191.475 161.111 190.777 163.171 190.651 163.981C190.39 165.676 191.032 167.229 192.509 168.053C193.286 168.487 194.191 168.719 194.907 169.27C195.681 169.866 196.063 170.69 196.894 171.237C198.342 168.237 195.906 165.905 193.53 164.564Z" fill="black"/> <path fill-rule="evenodd" clip-rule="evenodd" d="M202.085 158.81C199.858 159.335 199.471 165.477 201.889 165.374C203.315 165.313 202.915 162.438 203.138 161.458C203.356 160.502 203.795 158.407 202.085 158.81Z" fill="black"/> <path fill-rule="evenodd" clip-rule="evenodd" d="M200.805 51.0596C203.68 52.969 208.345 48.0688 206.87 45.1404C205.7 45.8407 203.994 47.9137 202.551 47.7651C200.301 47.5337 202.611 45.3481 202.302 44.2994C201.718 42.3166 200.085 45.6495 199.899 46.2719C199.465 47.72 199.338 50.0858 200.805 51.0596Z" fill="black"/> <path fill-rule="evenodd" clip-rule="evenodd" d="M208.076 109.151C208.03 108.024 207.712 106.862 206.878 106.061C206.044 105.259 205.068 105.069 204.439 104.059C204.041 103.419 204.031 102.781 203.197 103.443C202.664 103.866 202.502 105.058 202.511 105.685C202.524 106.628 202.902 107.518 203.517 108.226C204.234 109.05 205.247 109.172 206.011 109.83C206.475 110.231 206.583 111.226 207.338 110.889C207.816 110.676 207.937 109.582 208.076 109.151Z" fill="black"/> </svg>